# xmcd
#
# Track frame offsets:
#	150
#	14879
#	27735
#	44109
#	58252
#	72113
#	87281
#	102664
#	117783
#	132443
#
# Disc length: 1928 seconds
#
# Revision: 2
# Processed by: cddbd v1.5.2PL0 Copyright (c) Steve Scherf et al.
# Submitted via: EasyCDDAExtractor 12.0.4.1
#
DISCID=9c07860a
DTITLE=Merle Haggard - Greatest Hits of the 80's
DYEAR=1990
DGENRE=Country
TTITLE0=Yesterday's Wine
TTITLE1=Let's Chase Each Other Around the Room
TTITLE2=A Place to Fall Apart
TTITLE3=Natural High
TTITLE4=I Had A Beautiful Time
TTITLE5=A Friend in California
TTITLE6=Twinkle, Twinkle Lucky Star
TTITLE7=Chill Factor
TTITLE8=5:01 Blues
TTITLE9=A Better Love Next Time
EXTD=Songs 1-4 AAD\nSongs 5-10 DDD\n
EXTT0=Merle Haggard, George Jones
EXTT1=Merle Haggard
EXTT2=Merle Haggard
EXTT3=Merle Haggard, Janie Frickie
EXTT4=Merle Haggard
EXTT5=Merle Haggard
EXTT6=Merle Haggard
EXTT7=Merle Haggard
EXTT8=Merle Haggard
EXTT9=Merle Haggard
PLAYORDER=
